<mxfile host="Electron" modified="2024-01-30T17:48:14.962Z" agent="Mozilla/5.0 (Windows NT 10.0; Win64; x64) AppleWebKit/537.36 (KHTML, like Gecko) draw.io/22.0.3 Chrome/114.0.5735.289 Electron/25.8.4 Safari/537.36" etag="SGHOhMOByI6eLpckHDh7" version="22.0.3" type="device">
  <diagram name="Страница — 1" id="t3h-YuILRJJiikTTFnA5">
    <mxGraphModel dx="1050" dy="629" grid="1" gridSize="10" guides="1" tooltips="1" connect="1" arrows="1" fold="1" page="1" pageScale="1" pageWidth="1169" pageHeight="1654" math="0" shadow="0">
      <root>
        <mxCell id="0" />
        <mxCell id="1" parent="0" />
        <mxCell id="0L2LNqEKUpeHbzScbuu1-1" value="Повар" style="whiteSpace=wrap;html=1;align=center;" parent="1" vertex="1">
          <mxGeometry x="250" y="451" width="100" height="40" as="geometry" />
        </mxCell>
        <mxCell id="0L2LNqEKUpeHbzScbuu1-2" value="Расписание" style="whiteSpace=wrap;html=1;align=center;" parent="1" vertex="1">
          <mxGeometry x="480" y="351" width="100" height="40" as="geometry" />
        </mxCell>
        <mxCell id="0L2LNqEKUpeHbzScbuu1-3" value="Меню" style="whiteSpace=wrap;html=1;align=center;" parent="1" vertex="1">
          <mxGeometry x="760" y="680" width="100" height="40" as="geometry" />
        </mxCell>
        <mxCell id="0L2LNqEKUpeHbzScbuu1-4" value="Клиент" style="whiteSpace=wrap;html=1;align=center;" parent="1" vertex="1">
          <mxGeometry x="635" y="411" width="100" height="40" as="geometry" />
        </mxCell>
        <mxCell id="0L2LNqEKUpeHbzScbuu1-5" value="Заказ" style="whiteSpace=wrap;html=1;align=center;" parent="1" vertex="1">
          <mxGeometry x="480" y="664" width="100" height="40" as="geometry" />
        </mxCell>
        <mxCell id="0L2LNqEKUpeHbzScbuu1-6" value="Склад" style="whiteSpace=wrap;html=1;align=center;" parent="1" vertex="1">
          <mxGeometry x="250" y="277" width="100" height="40" as="geometry" />
        </mxCell>
        <mxCell id="0L2LNqEKUpeHbzScbuu1-9" value="ФИО" style="ellipse;whiteSpace=wrap;html=1;align=center;" parent="1" vertex="1">
          <mxGeometry x="90" y="391" width="100" height="40" as="geometry" />
        </mxCell>
        <mxCell id="0L2LNqEKUpeHbzScbuu1-10" value="Специализация" style="ellipse;whiteSpace=wrap;html=1;align=center;" parent="1" vertex="1">
          <mxGeometry x="80" y="440" width="100" height="40" as="geometry" />
        </mxCell>
        <mxCell id="0L2LNqEKUpeHbzScbuu1-11" value="Зарплата" style="ellipse;whiteSpace=wrap;html=1;align=center;" parent="1" vertex="1">
          <mxGeometry x="80" y="491" width="100" height="40" as="geometry" />
        </mxCell>
        <mxCell id="0L2LNqEKUpeHbzScbuu1-12" value="" style="endArrow=none;html=1;rounded=0;exitX=1;exitY=0.5;exitDx=0;exitDy=0;entryX=0;entryY=0.5;entryDx=0;entryDy=0;" parent="1" source="0L2LNqEKUpeHbzScbuu1-9" target="0L2LNqEKUpeHbzScbuu1-1" edge="1">
          <mxGeometry width="50" height="50" relative="1" as="geometry">
            <mxPoint x="300" y="531" as="sourcePoint" />
            <mxPoint x="350" y="481" as="targetPoint" />
          </mxGeometry>
        </mxCell>
        <mxCell id="0L2LNqEKUpeHbzScbuu1-13" value="Должность" style="ellipse;whiteSpace=wrap;html=1;align=center;" parent="1" vertex="1">
          <mxGeometry x="100" y="536" width="100" height="40" as="geometry" />
        </mxCell>
        <mxCell id="0L2LNqEKUpeHbzScbuu1-14" value="Номер телефона" style="ellipse;whiteSpace=wrap;html=1;align=center;" parent="1" vertex="1">
          <mxGeometry x="110" y="590" width="100" height="40" as="geometry" />
        </mxCell>
        <mxCell id="0L2LNqEKUpeHbzScbuu1-15" value="" style="endArrow=none;html=1;rounded=0;exitX=1;exitY=0.5;exitDx=0;exitDy=0;entryX=0;entryY=0.5;entryDx=0;entryDy=0;" parent="1" source="0L2LNqEKUpeHbzScbuu1-10" target="0L2LNqEKUpeHbzScbuu1-1" edge="1">
          <mxGeometry width="50" height="50" relative="1" as="geometry">
            <mxPoint x="410" y="491" as="sourcePoint" />
            <mxPoint x="460" y="441" as="targetPoint" />
          </mxGeometry>
        </mxCell>
        <mxCell id="0L2LNqEKUpeHbzScbuu1-16" value="" style="endArrow=none;html=1;rounded=0;exitX=1;exitY=0.5;exitDx=0;exitDy=0;entryX=0;entryY=0.5;entryDx=0;entryDy=0;" parent="1" source="0L2LNqEKUpeHbzScbuu1-11" target="0L2LNqEKUpeHbzScbuu1-1" edge="1">
          <mxGeometry width="50" height="50" relative="1" as="geometry">
            <mxPoint x="330" y="571" as="sourcePoint" />
            <mxPoint x="380" y="521" as="targetPoint" />
          </mxGeometry>
        </mxCell>
        <mxCell id="0L2LNqEKUpeHbzScbuu1-17" value="" style="endArrow=none;html=1;rounded=0;exitX=1;exitY=0.5;exitDx=0;exitDy=0;entryX=0;entryY=0.5;entryDx=0;entryDy=0;" parent="1" source="0L2LNqEKUpeHbzScbuu1-13" target="0L2LNqEKUpeHbzScbuu1-1" edge="1">
          <mxGeometry width="50" height="50" relative="1" as="geometry">
            <mxPoint x="260" y="541" as="sourcePoint" />
            <mxPoint x="310" y="491" as="targetPoint" />
          </mxGeometry>
        </mxCell>
        <mxCell id="0L2LNqEKUpeHbzScbuu1-18" value="" style="endArrow=none;html=1;rounded=0;exitX=1;exitY=0.5;exitDx=0;exitDy=0;entryX=0;entryY=0.5;entryDx=0;entryDy=0;" parent="1" source="0L2LNqEKUpeHbzScbuu1-14" target="0L2LNqEKUpeHbzScbuu1-1" edge="1">
          <mxGeometry width="50" height="50" relative="1" as="geometry">
            <mxPoint x="290" y="541" as="sourcePoint" />
            <mxPoint x="340" y="491" as="targetPoint" />
          </mxGeometry>
        </mxCell>
        <mxCell id="0L2LNqEKUpeHbzScbuu1-19" value="ФИО" style="ellipse;whiteSpace=wrap;html=1;align=center;" parent="1" vertex="1">
          <mxGeometry x="780" y="320" width="100" height="40" as="geometry" />
        </mxCell>
        <mxCell id="0L2LNqEKUpeHbzScbuu1-20" value="Номер телефона" style="ellipse;whiteSpace=wrap;html=1;align=center;" parent="1" vertex="1">
          <mxGeometry x="800" y="391" width="100" height="40" as="geometry" />
        </mxCell>
        <mxCell id="0L2LNqEKUpeHbzScbuu1-21" value="Способ оплаты" style="ellipse;whiteSpace=wrap;html=1;align=center;" parent="1" vertex="1">
          <mxGeometry x="820" y="451" width="100" height="40" as="geometry" />
        </mxCell>
        <mxCell id="0L2LNqEKUpeHbzScbuu1-23" value="Статус" style="ellipse;whiteSpace=wrap;html=1;align=center;" parent="1" vertex="1">
          <mxGeometry x="245" y="670" width="100" height="40" as="geometry" />
        </mxCell>
        <mxCell id="0L2LNqEKUpeHbzScbuu1-27" value="" style="endArrow=none;html=1;rounded=0;entryX=0;entryY=0.5;entryDx=0;entryDy=0;exitX=1;exitY=0.5;exitDx=0;exitDy=0;" parent="1" source="0L2LNqEKUpeHbzScbuu1-4" target="0L2LNqEKUpeHbzScbuu1-19" edge="1">
          <mxGeometry width="50" height="50" relative="1" as="geometry">
            <mxPoint x="700" y="397" as="sourcePoint" />
            <mxPoint x="750" y="347" as="targetPoint" />
          </mxGeometry>
        </mxCell>
        <mxCell id="0L2LNqEKUpeHbzScbuu1-28" value="" style="endArrow=none;html=1;rounded=0;entryX=0;entryY=0.5;entryDx=0;entryDy=0;exitX=1;exitY=0.5;exitDx=0;exitDy=0;" parent="1" source="0L2LNqEKUpeHbzScbuu1-4" target="0L2LNqEKUpeHbzScbuu1-20" edge="1">
          <mxGeometry width="50" height="50" relative="1" as="geometry">
            <mxPoint x="760" y="587" as="sourcePoint" />
            <mxPoint x="810" y="537" as="targetPoint" />
          </mxGeometry>
        </mxCell>
        <mxCell id="0L2LNqEKUpeHbzScbuu1-29" value="" style="endArrow=none;html=1;rounded=0;entryX=0;entryY=0.5;entryDx=0;entryDy=0;exitX=1;exitY=0.5;exitDx=0;exitDy=0;" parent="1" source="0L2LNqEKUpeHbzScbuu1-4" target="0L2LNqEKUpeHbzScbuu1-21" edge="1">
          <mxGeometry width="50" height="50" relative="1" as="geometry">
            <mxPoint x="640" y="627" as="sourcePoint" />
            <mxPoint x="690" y="577" as="targetPoint" />
          </mxGeometry>
        </mxCell>
        <mxCell id="0L2LNqEKUpeHbzScbuu1-31" value="1" style="shape=rhombus;perimeter=rhombusPerimeter;whiteSpace=wrap;html=1;align=center;" parent="1" vertex="1">
          <mxGeometry x="370" y="391" width="90" height="40" as="geometry" />
        </mxCell>
        <mxCell id="0L2LNqEKUpeHbzScbuu1-39" value="3" style="shape=rhombus;perimeter=rhombusPerimeter;whiteSpace=wrap;html=1;align=center;" parent="1" vertex="1">
          <mxGeometry x="640" y="575" width="90" height="40" as="geometry" />
        </mxCell>
        <mxCell id="0L2LNqEKUpeHbzScbuu1-40" value="4" style="shape=rhombus;perimeter=rhombusPerimeter;whiteSpace=wrap;html=1;align=center;" parent="1" vertex="1">
          <mxGeometry x="350" y="576" width="90" height="40" as="geometry" />
        </mxCell>
        <mxCell id="d1ey22mJv0_nmuH7FblI-1" value="2" style="shape=rhombus;perimeter=rhombusPerimeter;whiteSpace=wrap;html=1;align=center;" parent="1" vertex="1">
          <mxGeometry x="620" y="730" width="90" height="40" as="geometry" />
        </mxCell>
        <mxCell id="d1ey22mJv0_nmuH7FblI-2" value="5" style="shape=rhombus;perimeter=rhombusPerimeter;whiteSpace=wrap;html=1;align=center;" parent="1" vertex="1">
          <mxGeometry x="255" y="360" width="90" height="40" as="geometry" />
        </mxCell>
        <mxCell id="d1ey22mJv0_nmuH7FblI-3" value="" style="endArrow=none;html=1;rounded=0;entryX=0;entryY=0.5;entryDx=0;entryDy=0;exitX=0.5;exitY=0;exitDx=0;exitDy=0;" parent="1" source="0L2LNqEKUpeHbzScbuu1-23" target="0L2LNqEKUpeHbzScbuu1-40" edge="1">
          <mxGeometry width="50" height="50" relative="1" as="geometry">
            <mxPoint x="520" y="954" as="sourcePoint" />
            <mxPoint x="570" y="904" as="targetPoint" />
          </mxGeometry>
        </mxCell>
        <mxCell id="d1ey22mJv0_nmuH7FblI-4" value="" style="endArrow=none;html=1;rounded=0;entryX=0.5;entryY=1;entryDx=0;entryDy=0;exitX=0.5;exitY=0;exitDx=0;exitDy=0;" parent="1" source="FgNhBC254QzJvuF2xwNE-7" target="0L2LNqEKUpeHbzScbuu1-5" edge="1">
          <mxGeometry width="50" height="50" relative="1" as="geometry">
            <mxPoint x="530" y="750" as="sourcePoint" />
            <mxPoint x="570" y="604" as="targetPoint" />
          </mxGeometry>
        </mxCell>
        <mxCell id="d1ey22mJv0_nmuH7FblI-5" value="" style="endArrow=none;html=1;rounded=0;exitX=0;exitY=0.5;exitDx=0;exitDy=0;entryX=1;entryY=0.5;entryDx=0;entryDy=0;endFill=0;startArrow=ERone;startFill=0;edgeStyle=orthogonalEdgeStyle;" parent="1" source="0L2LNqEKUpeHbzScbuu1-3" target="d1ey22mJv0_nmuH7FblI-1" edge="1">
          <mxGeometry width="50" height="50" relative="1" as="geometry">
            <mxPoint x="789" y="946" as="sourcePoint" />
            <mxPoint x="839" y="896" as="targetPoint" />
          </mxGeometry>
        </mxCell>
        <mxCell id="d1ey22mJv0_nmuH7FblI-15" value="" style="edgeStyle=orthogonalEdgeStyle;fontSize=12;html=1;endArrow=ERone;endFill=1;rounded=0;entryX=0;entryY=0.5;entryDx=0;entryDy=0;exitX=1;exitY=0.5;exitDx=0;exitDy=0;" parent="1" source="0L2LNqEKUpeHbzScbuu1-31" target="0L2LNqEKUpeHbzScbuu1-2" edge="1">
          <mxGeometry width="100" height="100" relative="1" as="geometry">
            <mxPoint x="629" y="417" as="sourcePoint" />
            <mxPoint x="590" y="381" as="targetPoint" />
          </mxGeometry>
        </mxCell>
        <mxCell id="d1ey22mJv0_nmuH7FblI-16" value="" style="fontSize=12;html=1;endArrow=ERmany;rounded=0;entryX=1;entryY=0.5;entryDx=0;entryDy=0;exitX=0;exitY=0.5;exitDx=0;exitDy=0;edgeStyle=orthogonalEdgeStyle;" parent="1" source="0L2LNqEKUpeHbzScbuu1-31" target="0L2LNqEKUpeHbzScbuu1-1" edge="1">
          <mxGeometry width="100" height="100" relative="1" as="geometry">
            <mxPoint x="719" y="417" as="sourcePoint" />
            <mxPoint x="780" y="477" as="targetPoint" />
          </mxGeometry>
        </mxCell>
        <mxCell id="d1ey22mJv0_nmuH7FblI-17" value="" style="endArrow=none;html=1;rounded=0;entryX=0.5;entryY=0;entryDx=0;entryDy=0;endFill=0;startArrow=ERone;startFill=0;exitX=0.5;exitY=1;exitDx=0;exitDy=0;" parent="1" source="0L2LNqEKUpeHbzScbuu1-6" edge="1">
          <mxGeometry width="50" height="50" relative="1" as="geometry">
            <mxPoint x="300" y="320" as="sourcePoint" />
            <mxPoint x="299.70000000000005" y="361" as="targetPoint" />
          </mxGeometry>
        </mxCell>
        <mxCell id="d1ey22mJv0_nmuH7FblI-19" style="edgeStyle=orthogonalEdgeStyle;rounded=0;orthogonalLoop=1;jettySize=auto;html=1;exitX=0.5;exitY=1;exitDx=0;exitDy=0;endArrow=ERmany;endFill=0;entryX=0.5;entryY=0;entryDx=0;entryDy=0;" parent="1" source="d1ey22mJv0_nmuH7FblI-2" target="0L2LNqEKUpeHbzScbuu1-1" edge="1">
          <mxGeometry relative="1" as="geometry">
            <mxPoint x="830" y="407" as="sourcePoint" />
            <mxPoint x="300" y="450" as="targetPoint" />
          </mxGeometry>
        </mxCell>
        <mxCell id="d1ey22mJv0_nmuH7FblI-21" value="" style="edgeStyle=orthogonalEdgeStyle;fontSize=12;html=1;endArrow=ERone;endFill=1;rounded=0;entryX=0.5;entryY=1;entryDx=0;entryDy=0;exitX=0.5;exitY=0;exitDx=0;exitDy=0;" parent="1" source="0L2LNqEKUpeHbzScbuu1-39" target="0L2LNqEKUpeHbzScbuu1-4" edge="1">
          <mxGeometry width="100" height="100" relative="1" as="geometry">
            <mxPoint x="590" y="550" as="sourcePoint" />
            <mxPoint x="690" y="450" as="targetPoint" />
          </mxGeometry>
        </mxCell>
        <mxCell id="d1ey22mJv0_nmuH7FblI-22" value="" style="edgeStyle=orthogonalEdgeStyle;fontSize=12;html=1;endArrow=ERmany;rounded=0;entryX=1;entryY=0.5;entryDx=0;entryDy=0;exitX=0.5;exitY=1;exitDx=0;exitDy=0;" parent="1" source="0L2LNqEKUpeHbzScbuu1-39" target="0L2LNqEKUpeHbzScbuu1-5" edge="1">
          <mxGeometry width="100" height="100" relative="1" as="geometry">
            <mxPoint x="660" y="684" as="sourcePoint" />
            <mxPoint x="670" y="600" as="targetPoint" />
          </mxGeometry>
        </mxCell>
        <mxCell id="d1ey22mJv0_nmuH7FblI-23" value="" style="edgeStyle=orthogonalEdgeStyle;fontSize=12;html=1;endArrow=ERmany;rounded=0;entryX=0;entryY=0.5;entryDx=0;entryDy=0;exitX=0.5;exitY=1;exitDx=0;exitDy=0;" parent="1" source="0L2LNqEKUpeHbzScbuu1-40" target="0L2LNqEKUpeHbzScbuu1-5" edge="1">
          <mxGeometry width="100" height="100" relative="1" as="geometry">
            <mxPoint x="410" y="649.5" as="sourcePoint" />
            <mxPoint x="305" y="718.5" as="targetPoint" />
          </mxGeometry>
        </mxCell>
        <mxCell id="d1ey22mJv0_nmuH7FblI-24" value="" style="edgeStyle=orthogonalEdgeStyle;fontSize=12;html=1;endArrow=ERmany;rounded=0;entryX=0.5;entryY=1;entryDx=0;entryDy=0;exitX=0.5;exitY=0;exitDx=0;exitDy=0;" parent="1" source="0L2LNqEKUpeHbzScbuu1-40" target="0L2LNqEKUpeHbzScbuu1-1" edge="1">
          <mxGeometry width="100" height="100" relative="1" as="geometry">
            <mxPoint x="510" y="550" as="sourcePoint" />
            <mxPoint x="600" y="704" as="targetPoint" />
          </mxGeometry>
        </mxCell>
        <mxCell id="d1ey22mJv0_nmuH7FblI-30" value="Состав" style="ellipse;whiteSpace=wrap;html=1;align=center;" parent="1" vertex="1">
          <mxGeometry x="365" y="750" width="100" height="40" as="geometry" />
        </mxCell>
        <mxCell id="d1ey22mJv0_nmuH7FblI-32" value="" style="endArrow=none;html=1;rounded=0;entryX=0.5;entryY=1;entryDx=0;entryDy=0;exitX=0.5;exitY=0;exitDx=0;exitDy=0;" parent="1" source="d1ey22mJv0_nmuH7FblI-30" target="0L2LNqEKUpeHbzScbuu1-5" edge="1">
          <mxGeometry width="50" height="50" relative="1" as="geometry">
            <mxPoint x="550" y="900" as="sourcePoint" />
            <mxPoint x="600" y="850" as="targetPoint" />
          </mxGeometry>
        </mxCell>
        <mxCell id="d1ey22mJv0_nmuH7FblI-37" value="" style="endArrow=none;html=1;rounded=0;entryX=0.5;entryY=0;entryDx=0;entryDy=0;exitX=0.5;exitY=1;exitDx=0;exitDy=0;" parent="1" source="wqTaCAEfBdBq5qgtTcIU-1" target="0L2LNqEKUpeHbzScbuu1-2" edge="1">
          <mxGeometry width="50" height="50" relative="1" as="geometry">
            <mxPoint x="430" y="320" as="sourcePoint" />
            <mxPoint x="530" y="370" as="targetPoint" />
          </mxGeometry>
        </mxCell>
        <mxCell id="d1ey22mJv0_nmuH7FblI-38" value="Время обеда" style="ellipse;whiteSpace=wrap;html=1;align=center;" parent="1" vertex="1">
          <mxGeometry x="480" y="276" width="100" height="40" as="geometry" />
        </mxCell>
        <mxCell id="d1ey22mJv0_nmuH7FblI-39" value="" style="endArrow=none;html=1;rounded=0;entryX=0.5;entryY=0;entryDx=0;entryDy=0;" parent="1" source="d1ey22mJv0_nmuH7FblI-38" target="0L2LNqEKUpeHbzScbuu1-2" edge="1">
          <mxGeometry width="50" height="50" relative="1" as="geometry">
            <mxPoint x="480" y="420" as="sourcePoint" />
            <mxPoint x="530" y="370" as="targetPoint" />
          </mxGeometry>
        </mxCell>
        <mxCell id="d1ey22mJv0_nmuH7FblI-40" value="Выходной" style="ellipse;whiteSpace=wrap;html=1;align=center;" parent="1" vertex="1">
          <mxGeometry x="590" y="276" width="100" height="40" as="geometry" />
        </mxCell>
        <mxCell id="d1ey22mJv0_nmuH7FblI-41" value="" style="endArrow=none;html=1;rounded=0;entryX=0.5;entryY=1;entryDx=0;entryDy=0;exitX=0.5;exitY=0;exitDx=0;exitDy=0;" parent="1" source="0L2LNqEKUpeHbzScbuu1-2" target="d1ey22mJv0_nmuH7FblI-40" edge="1">
          <mxGeometry width="50" height="50" relative="1" as="geometry">
            <mxPoint x="480" y="420" as="sourcePoint" />
            <mxPoint x="530" y="370" as="targetPoint" />
          </mxGeometry>
        </mxCell>
        <mxCell id="d1ey22mJv0_nmuH7FblI-42" value="Название продукта" style="ellipse;whiteSpace=wrap;html=1;align=center;" parent="1" vertex="1">
          <mxGeometry x="170" y="201" width="100" height="40" as="geometry" />
        </mxCell>
        <mxCell id="d1ey22mJv0_nmuH7FblI-43" value="" style="endArrow=none;html=1;rounded=0;entryX=0.5;entryY=0;entryDx=0;entryDy=0;exitX=0.5;exitY=1;exitDx=0;exitDy=0;" parent="1" source="d1ey22mJv0_nmuH7FblI-42" edge="1">
          <mxGeometry width="50" height="50" relative="1" as="geometry">
            <mxPoint x="250" y="345" as="sourcePoint" />
            <mxPoint x="300" y="276" as="targetPoint" />
          </mxGeometry>
        </mxCell>
        <mxCell id="d1ey22mJv0_nmuH7FblI-44" value="Количество продукта" style="ellipse;whiteSpace=wrap;html=1;align=center;" parent="1" vertex="1">
          <mxGeometry x="280" y="201" width="100" height="40" as="geometry" />
        </mxCell>
        <mxCell id="d1ey22mJv0_nmuH7FblI-45" value="" style="endArrow=none;html=1;rounded=0;entryX=0.5;entryY=0;entryDx=0;entryDy=0;" parent="1" source="d1ey22mJv0_nmuH7FblI-44" edge="1">
          <mxGeometry width="50" height="50" relative="1" as="geometry">
            <mxPoint x="250" y="345" as="sourcePoint" />
            <mxPoint x="300" y="276" as="targetPoint" />
          </mxGeometry>
        </mxCell>
        <mxCell id="d1ey22mJv0_nmuH7FblI-46" value="Мера измерения" style="ellipse;whiteSpace=wrap;html=1;align=center;" parent="1" vertex="1">
          <mxGeometry x="390" y="200" width="100" height="40" as="geometry" />
        </mxCell>
        <mxCell id="d1ey22mJv0_nmuH7FblI-47" value="" style="endArrow=none;html=1;rounded=0;entryX=0.5;entryY=1;entryDx=0;entryDy=0;exitX=0.5;exitY=0;exitDx=0;exitDy=0;" parent="1" target="d1ey22mJv0_nmuH7FblI-46" edge="1">
          <mxGeometry width="50" height="50" relative="1" as="geometry">
            <mxPoint x="300" y="276" as="sourcePoint" />
            <mxPoint x="300" y="295" as="targetPoint" />
          </mxGeometry>
        </mxCell>
        <mxCell id="d1ey22mJv0_nmuH7FblI-49" value="" style="endArrow=none;html=1;rounded=0;entryX=1;entryY=0.5;entryDx=0;entryDy=0;exitX=0;exitY=0.5;exitDx=0;exitDy=0;" parent="1" source="FgNhBC254QzJvuF2xwNE-2" edge="1" target="0L2LNqEKUpeHbzScbuu1-3">
          <mxGeometry width="50" height="50" relative="1" as="geometry">
            <mxPoint x="775" y="670" as="sourcePoint" />
            <mxPoint x="939" y="705" as="targetPoint" />
          </mxGeometry>
        </mxCell>
        <mxCell id="d1ey22mJv0_nmuH7FblI-50" value="Цена блюда" style="ellipse;whiteSpace=wrap;html=1;align=center;" parent="1" vertex="1">
          <mxGeometry x="880" y="575" width="100" height="40" as="geometry" />
        </mxCell>
        <mxCell id="d1ey22mJv0_nmuH7FblI-51" value="" style="endArrow=none;html=1;rounded=0;entryX=1;entryY=0.5;entryDx=0;entryDy=0;exitX=0;exitY=0.5;exitDx=0;exitDy=0;" parent="1" source="d1ey22mJv0_nmuH7FblI-50" edge="1" target="0L2LNqEKUpeHbzScbuu1-3">
          <mxGeometry width="50" height="50" relative="1" as="geometry">
            <mxPoint x="889" y="774" as="sourcePoint" />
            <mxPoint x="939" y="705" as="targetPoint" />
          </mxGeometry>
        </mxCell>
        <mxCell id="d1ey22mJv0_nmuH7FblI-59" value="Состав блюда" style="ellipse;whiteSpace=wrap;html=1;align=center;" parent="1" vertex="1">
          <mxGeometry x="900" y="640" width="100" height="40" as="geometry" />
        </mxCell>
        <mxCell id="d1ey22mJv0_nmuH7FblI-60" value="" style="endArrow=none;html=1;rounded=0;exitX=1;exitY=0.5;exitDx=0;exitDy=0;entryX=0;entryY=0.5;entryDx=0;entryDy=0;" parent="1" source="0L2LNqEKUpeHbzScbuu1-3" target="d1ey22mJv0_nmuH7FblI-59" edge="1">
          <mxGeometry relative="1" as="geometry">
            <mxPoint x="859" y="640" as="sourcePoint" />
            <mxPoint x="1000" y="670" as="targetPoint" />
          </mxGeometry>
        </mxCell>
        <mxCell id="FgNhBC254QzJvuF2xwNE-2" value="Название" style="ellipse;whiteSpace=wrap;html=1;align=center;" parent="1" vertex="1">
          <mxGeometry x="900" y="710" width="100" height="40" as="geometry" />
        </mxCell>
        <mxCell id="FgNhBC254QzJvuF2xwNE-3" value="Идентификатор" style="ellipse;whiteSpace=wrap;html=1;align=center;fontStyle=4;" parent="1" vertex="1">
          <mxGeometry x="890" y="790" width="100" height="40" as="geometry" />
        </mxCell>
        <mxCell id="FgNhBC254QzJvuF2xwNE-4" value="" style="endArrow=none;html=1;rounded=0;entryX=0;entryY=0.5;entryDx=0;entryDy=0;exitX=1;exitY=0.5;exitDx=0;exitDy=0;" parent="1" source="0L2LNqEKUpeHbzScbuu1-3" target="FgNhBC254QzJvuF2xwNE-3" edge="1">
          <mxGeometry width="50" height="50" relative="1" as="geometry">
            <mxPoint x="939" y="710" as="sourcePoint" />
            <mxPoint x="859" y="580" as="targetPoint" />
          </mxGeometry>
        </mxCell>
        <mxCell id="FgNhBC254QzJvuF2xwNE-5" value="Идентификатор" style="ellipse;whiteSpace=wrap;html=1;align=center;fontStyle=4;" parent="1" vertex="1">
          <mxGeometry x="780" y="510" width="100" height="40" as="geometry" />
        </mxCell>
        <mxCell id="FgNhBC254QzJvuF2xwNE-6" value="" style="endArrow=none;html=1;rounded=0;entryX=0;entryY=0.5;entryDx=0;entryDy=0;exitX=1;exitY=0.5;exitDx=0;exitDy=0;" parent="1" source="0L2LNqEKUpeHbzScbuu1-4" target="FgNhBC254QzJvuF2xwNE-5" edge="1">
          <mxGeometry width="50" height="50" relative="1" as="geometry">
            <mxPoint x="880" y="500" as="sourcePoint" />
            <mxPoint x="930" y="450" as="targetPoint" />
          </mxGeometry>
        </mxCell>
        <mxCell id="FgNhBC254QzJvuF2xwNE-7" value="Идентификатор" style="ellipse;whiteSpace=wrap;html=1;align=center;fontStyle=4;" parent="1" vertex="1">
          <mxGeometry x="480" y="750" width="100" height="40" as="geometry" />
        </mxCell>
        <mxCell id="FgNhBC254QzJvuF2xwNE-8" value="Сумма" style="ellipse;whiteSpace=wrap;html=1;align=center;" parent="1" vertex="1">
          <mxGeometry x="480" y="590" width="100" height="40" as="geometry" />
        </mxCell>
        <mxCell id="FgNhBC254QzJvuF2xwNE-9" value="" style="endArrow=none;html=1;rounded=0;entryX=0.5;entryY=1;entryDx=0;entryDy=0;exitX=0.5;exitY=0;exitDx=0;exitDy=0;" parent="1" source="0L2LNqEKUpeHbzScbuu1-5" target="FgNhBC254QzJvuF2xwNE-8" edge="1">
          <mxGeometry width="50" height="50" relative="1" as="geometry">
            <mxPoint x="500" y="680" as="sourcePoint" />
            <mxPoint x="550" y="630" as="targetPoint" />
          </mxGeometry>
        </mxCell>
        <mxCell id="wqTaCAEfBdBq5qgtTcIU-1" value="Число" style="ellipse;whiteSpace=wrap;html=1;align=center;fontStyle=4;" parent="1" vertex="1">
          <mxGeometry x="370" y="277" width="100" height="40" as="geometry" />
        </mxCell>
        <mxCell id="wqTaCAEfBdBq5qgtTcIU-2" value="Идентификатор продукта" style="ellipse;whiteSpace=wrap;html=1;align=center;fontStyle=4;" parent="1" vertex="1">
          <mxGeometry x="60" y="200" width="100" height="40" as="geometry" />
        </mxCell>
        <mxCell id="wqTaCAEfBdBq5qgtTcIU-3" value="" style="endArrow=none;html=1;rounded=0;entryX=0.5;entryY=1;entryDx=0;entryDy=0;exitX=0.5;exitY=0;exitDx=0;exitDy=0;" parent="1" source="0L2LNqEKUpeHbzScbuu1-6" target="wqTaCAEfBdBq5qgtTcIU-2" edge="1">
          <mxGeometry width="50" height="50" relative="1" as="geometry">
            <mxPoint x="280" y="280" as="sourcePoint" />
            <mxPoint x="330" y="230" as="targetPoint" />
          </mxGeometry>
        </mxCell>
        <mxCell id="wqTaCAEfBdBq5qgtTcIU-4" value="Номер паспорта" style="ellipse;whiteSpace=wrap;html=1;align=center;fontStyle=4;" parent="1" vertex="1">
          <mxGeometry x="130" y="340" width="100" height="40" as="geometry" />
        </mxCell>
        <mxCell id="wqTaCAEfBdBq5qgtTcIU-5" value="" style="endArrow=none;html=1;rounded=0;entryX=0.5;entryY=1;entryDx=0;entryDy=0;exitX=0;exitY=0.5;exitDx=0;exitDy=0;" parent="1" source="0L2LNqEKUpeHbzScbuu1-1" target="wqTaCAEfBdBq5qgtTcIU-4" edge="1">
          <mxGeometry width="50" height="50" relative="1" as="geometry">
            <mxPoint x="250" y="470" as="sourcePoint" />
            <mxPoint x="320" y="660" as="targetPoint" />
          </mxGeometry>
        </mxCell>
        <mxCell id="0XgdN2noTssXbj78WW6F-4" value="" style="edgeStyle=orthogonalEdgeStyle;fontSize=12;html=1;endArrow=ERmany;rounded=0;entryX=1;entryY=0.5;entryDx=0;entryDy=0;exitX=0;exitY=0.5;exitDx=0;exitDy=0;" edge="1" parent="1" source="d1ey22mJv0_nmuH7FblI-1" target="0L2LNqEKUpeHbzScbuu1-5">
          <mxGeometry width="100" height="100" relative="1" as="geometry">
            <mxPoint x="570" y="560" as="sourcePoint" />
            <mxPoint x="670" y="460" as="targetPoint" />
          </mxGeometry>
        </mxCell>
      </root>
    </mxGraphModel>
  </diagram>
</mxfile>
